<?xml version="1.0" standalone="no"?>
<!DOCTYPE svg PUBLIC "-//W3C//DTD SVG 20010904//EN"
 "http://www.w3.org/TR/2001/REC-SVG-20010904/DTD/svg10.dtd">
<svg version="1.0" xmlns="http://www.w3.org/2000/svg"
 width="1936.000000pt" height="1936.000000pt" viewBox="0 0 1936.000000 1936.000000"
 preserveAspectRatio="xMidYMid meet">
<metadata>
Created by potrace 1.14, written by Peter Selinger 2001-2017
</metadata>
<g transform="translate(0.000000,1936.000000) scale(0.100000,-0.100000)"
fill="#000000" stroke="none">
<path d="M12268 16328 c-3 -2887 -4 -3031 -20 -3014 -10 10 -18 15 -18 11 0
-6 -48 23 -68 42 -7 7 -19 13 -26 13 -7 0 -21 8 -32 18 -23 19 -46 32 -261
144 -84 43 -199 99 -255 124 -57 24 -112 49 -123 54 -56 25 -307 120 -318 120
-5 0 -23 6 -40 14 -18 7 -66 24 -107 36 -41 12 -95 29 -120 37 -43 14 -253 70
-295 79 -11 2 -31 7 -45 10 -14 3 -43 10 -65 15 -22 5 -49 11 -60 14 -53 13
-72 17 -95 19 -14 2 -41 7 -60 11 -35 8 -65 13 -110 20 -14 1 -25 4 -25 5 0 1
-15 3 -34 6 -19 2 -46 6 -60 9 -22 4 -161 22 -310 41 -157 19 -444 36 -626 38
-67 1 -123 5 -127 11 -5 7 -8 6 -8 0 0 -6 -12 -10 -27 -9 -16 1 -28 3 -28 4 0
1 -14 2 -32 3 -17 1 -29 -1 -27 -4 2 -4 -11 -5 -29 -3 -17 1 -32 3 -32 4 0 1
-12 3 -27 4 -16 1 -28 -1 -28 -4 0 -3 -15 -5 -32 -3 -75 8 -96 8 -92 2 2 -4
-11 -5 -29 -3 -17 1 -32 3 -32 4 0 1 -12 3 -27 4 -16 1 -28 -1 -28 -4 0 -3
-15 -5 -32 -3 -75 8 -96 8 -92 2 2 -4 -11 -5 -29 -3 -17 1 -32 3 -32 4 0 1
-12 3 -27 4 -16 1 -28 -1 -28 -4 0 -3 -15 -5 -32 -3 -75 8 -96 8 -92 2 2 -4
-11 -5 -29 -3 -17 1 -32 3 -32 4 0 1 -12 3 -27 4 -16 1 -28 -1 -28 -4 0 -3
-15 -5 -32 -3 -75 8 -96 8 -92 2 2 -4 -11 -5 -29 -3 -17 1 -32 3 -32 4 0 1
-12 3 -27 4 -16 1 -28 -1 -28 -4 0 -3 -15 -5 -32 -3 -75 8 -96 8 -92 2 2 -4
-11 -5 -29 -3 -17 1 -32 3 -32 4 0 1 -12 3 -27 4 -16 1 -28 -1 -28 -4 0 -3
-15 -5 -32 -3 -75 8 -96 8 -92 2 2 -4 -11 -5 -29 -3 -17 1 -32 3 -32 4 0 1
-12 3 -27 4 -16 1 -28 -1 -28 -4 0 -3 -15 -5 -32 -3 -75 8 -96 8 -92 2 2 -4
-11 -5 -29 -3 -17 1 -32 3 -32 4 0 1 -12 3 -27 4 -16 1 -28 -1 -28 -4 0 -3
-15 -5 -32 -3 -75 8 -96 8 -92 2 2 -4 -11 -5 -29 -3 -17 1 -32 3 -32 4 0 1
-12 3 -27 4 -16 1 -28 -1 -28 -4 0 -3 -15 -5 -32 -3 -75 8 -96 8 -92 2 2 -4
-11 -5 -29 -3 -17 1 -32 3 -32 4 0 1 -12 3 -27 4 -16 1 -28 -1 -28 -4 0 -3
-15 -5 -32 -3 -75 8 -96 8 -92 2 2 -4 -11 -5 -29 -3 -17 1 -32 3 -32 4 0 1
-12 3 -27 4 -16 1 -28 -1 -28 -4 0 -3 -15 -5 -32 -3 -75 8 -96 8 -92 2 2 -4
-11 -5 -29 -3 -17 1 -32 3 -32 4 0 1 -12 3 -27 4 -16 1 -28 -1 -28 -4 0 -3
-15 -5 -32 -3 -75 8 -96 8 -92 2 2 -4 -11 -5 -29 -3 -17 1 -32 3 -32 4 0 1
-12 3 -27 4 -16 1 -28 -1 -28 -4 0 -3 -15 -5 -32 -3 -75 8 -96 8 -92 2 2 -4
-11 -5 -29 -3 -17 1 -32 3 -32 4 0 1 -12 3 -27 4 -16 1 -28 -1 -28 -4 0 -3
-15 -5 -32 -3 -75 8 -96 8 -92 2 2 -4 -11 -5 -29 -3 -17 1 -32 3 -32 4 0 1
-12 3 -27 4 -16 1 -28 -1 -28 -4 0 -3 -15 -5 -32 -3 -78 8 -96 8 -91 0 3 -5
-5 -6 -18 -1 -13 4 -33 6 -44 5 -55 -6 -72 -6 -93 1 -25 8 -23 20 -25 -135 -1
-49 1 -93 4 -99 4 -6 253 -10 702 -10 l695 0 0 -4437 c0 -2440 -2 -4439 -4
-4442 -3 -5 -226 63 -324 99 -8 3 -17 6 -20 7 -3 1 -25 7 -50 15 -25 7 -49 17
-54 22 -6 4 -20 8 -31 8 -12 0 -25 3 -29 7 -3 4 -12 8 -19 9 -16 3 -207 63
-232 74 -11 5 -119 40 -240 79 -121 40 -227 74 -235 77 -8 3 -16 5 -17 5 -2
-1 -26 8 -54 18 l-50 19 -11 -26 c-7 -15 -12 -35 -13 -44 -1 -10 -8 -24 -14
-32 -6 -8 -11 -18 -10 -22 1 -5 -3 -22 -10 -38 -27 -65 -29 -63 144 -122 88
-30 169 -56 180 -58 11 -2 21 -5 23 -6 1 -1 5 -3 10 -5 4 -1 14 -4 22 -8 8 -3
60 -20 115 -37 55 -17 109 -36 120 -41 11 -5 29 -11 40 -12 19 -4 28 -7 73
-24 9 -3 19 -7 22 -8 3 0 106 -34 230 -75 124 -40 227 -74 230 -75 3 -1 12 -4
20 -7 44 -17 293 -88 358 -103 9 -2 51 -13 92 -24 41 -10 89 -22 105 -25 17
-3 84 -16 150 -30 115 -24 161 -33 215 -41 26 -4 66 -11 109 -20 14 -2 47 -7
75 -10 28 -3 58 -8 66 -10 8 -2 38 -7 65 -10 28 -3 77 -9 110 -14 33 -5 67 -9
75 -10 8 0 33 -3 55 -6 53 -7 112 -14 155 -17 19 -2 37 -8 40 -15 3 -7 5
-1032 4 -2278 l0 -2265 117 0 c85 0 118 3 121 13 2 6 3 1026 3 2265 l-1 2253
91 -5 c210 -13 405 -18 645 -18 243 1 344 4 525 17 44 4 103 8 130 10 28 2 70
6 95 9 25 4 70 8 100 11 30 2 55 4 55 5 0 1 18 4 40 6 73 9 100 12 125 17 14
3 48 9 75 13 28 4 52 8 55 9 3 0 27 4 53 9 27 4 59 10 70 12 12 3 31 7 42 9
11 1 56 10 100 20 44 9 91 18 105 21 14 3 58 14 98 25 41 11 84 22 95 23 12 2
30 7 39 10 9 4 22 9 30 10 7 2 20 5 28 8 8 3 74 23 145 44 72 20 136 42 144
48 8 6 16 10 17 9 5 -3 15 0 112 36 46 17 90 31 98 31 8 0 14 5 14 12 0 6 3 9
6 6 4 -5 108 36 209 82 124 56 301 144 303 151 2 5 7 7 12 4 4 -3 24 6 44 20
20 14 39 25 41 25 3 0 39 20 81 45 41 25 78 45 80 45 3 0 17 8 32 19 15 10 80
54 145 97 154 103 161 108 165 117 2 4 8 7 13 7 5 0 17 7 27 16 9 8 35 29 57
46 75 56 108 83 159 127 132 113 198 174 291 267 84 84 127 130 240 258 46 51
153 187 206 261 35 50 67 92 70 95 3 3 8 10 10 15 2 6 34 55 70 110 36 55 74
114 83 130 9 17 30 53 46 80 39 67 180 347 209 415 13 30 32 75 43 100 12 25
21 51 21 58 0 6 5 12 10 12 6 0 7 3 4 6 -3 4 -1 16 5 28 7 11 13 23 13 26 3
18 29 87 38 98 5 6 7 12 4 12 -4 0 2 20 13 45 11 25 17 45 15 45 -3 0 2 17 10
37 8 21 30 95 50 164 34 121 40 143 51 199 3 14 11 50 19 80 7 30 16 71 19 90
3 19 8 46 11 60 3 14 8 41 11 60 3 19 7 46 10 60 2 14 7 41 9 60 3 19 8 51 11
70 3 19 7 49 9 65 1 17 6 62 10 100 4 39 8 79 9 90 0 11 6 23 11 27 6 5 5 8
-3 8 -7 0 -11 4 -8 9 26 41 26 662 0 936 -10 112 -13 142 -18 165 -3 14 -7 43
-10 65 -14 122 -19 151 -27 161 -5 6 -6 13 -4 16 3 3 -6 61 -20 129 -14 68
-27 131 -28 139 -1 8 -5 17 -9 20 -5 4 -12 31 -22 90 -1 8 -14 53 -29 100 -14
47 -27 94 -29 105 -2 11 -6 22 -9 25 -3 3 -15 34 -27 70 -27 85 -60 177 -77
215 -8 17 -26 59 -40 95 -45 108 -152 322 -226 452 -70 122 -228 366 -255 393
-8 7 -14 16 -14 20 0 7 -138 181 -219 275 -131 152 -304 324 -451 450 -29 25
-62 53 -74 64 -11 10 -46 37 -76 60 -30 22 -59 46 -65 52 -5 6 -25 21 -42 33
l-33 22 0 3115 0 3114 -120 0 -120 0 -2 -3032z m-2958 -2382 c25 -2 88 -7 140
-11 52 -3 113 -8 135 -11 22 -3 63 -7 90 -10 94 -10 120 -13 165 -19 25 -3 62
-8 84 -10 21 -2 48 -7 59 -11 12 -4 37 -8 57 -9 19 -2 62 -8 95 -15 33 -6 74
-13 90 -16 17 -3 46 -9 65 -14 19 -5 53 -12 75 -16 22 -3 43 -8 46 -10 3 -2
19 -6 35 -8 42 -8 90 -19 132 -31 9 -3 40 -10 69 -17 28 -7 55 -16 59 -21 4
-4 19 -7 34 -7 15 0 30 -3 34 -7 3 -4 14 -8 24 -10 9 -1 78 -23 152 -48 74
-26 141 -47 148 -47 6 -1 12 -5 12 -10 0 -5 5 -6 10 -3 6 4 16 3 23 -2 7 -5
35 -18 62 -28 52 -18 86 -32 147 -59 20 -9 38 -16 41 -16 24 0 412 -194 522
-262 17 -10 37 -21 45 -25 8 -3 40 -23 70 -42 30 -20 67 -42 81 -49 14 -8 49
-31 78 -53 28 -21 55 -39 60 -39 5 0 11 -7 15 -15 7 -20 7 -5055 -1 -5055 -3
0 -19 13 -34 30 -16 16 -29 28 -29 27 0 -2 -38 33 -85 78 -47 45 -135 129
-196 186 -61 57 -132 124 -158 149 -56 52 -172 163 -366 345 -76 72 -160 150
-186 175 -25 25 -96 91 -155 147 -60 56 -140 131 -178 167 -38 36 -73 66 -78
66 -5 0 -6 5 -3 10 3 6 2 10 -2 10 -5 0 -38 28 -75 63 -36 34 -120 114 -187
177 -68 63 -149 140 -181 170 -32 30 -113 107 -180 170 -68 63 -144 135 -170
160 -26 25 -112 106 -190 180 -241 227 -283 266 -347 327 -33 32 -114 108
-179 168 -64 61 -138 130 -164 155 -26 25 -100 95 -166 157 -65 61 -151 142
-191 180 -39 37 -124 118 -189 178 -64 61 -151 143 -193 183 -42 40 -100 94
-128 120 l-53 47 -120 1 c-80 0 -120 -3 -121 -10 0 -6 -2 -1572 -2 -3481 -2
-3428 -2 -3470 -21 -3468 -110 9 -156 14 -181 19 -16 3 -50 7 -75 9 -25 1 -52
5 -60 8 -8 3 -37 8 -65 11 -49 6 -62 8 -135 21 -19 4 -48 8 -65 10 -16 2 -30
4 -30 5 0 1 -11 3 -25 6 -48 8 -281 57 -325 68 -16 4 -66 16 -110 27 -44 11
-94 24 -111 30 l-30 9 0 4464 0 4463 1270 -3 c699 -1 1291 -5 1316 -8z m3311
-1226 c60 -54 246 -229 262 -247 11 -12 41 -44 66 -71 25 -26 66 -72 91 -101
25 -29 50 -58 55 -64 86 -98 292 -379 293 -401 0 -5 4 -12 9 -15 9 -6 73 -99
73 -105 0 -2 23 -43 51 -92 91 -157 254 -502 275 -579 1 -5 22 -66 46 -135 38
-106 94 -295 114 -381 3 -13 10 -42 15 -64 16 -67 21 -95 33 -160 16 -90 35
-211 41 -265 3 -19 7 -51 10 -70 9 -64 16 -138 21 -237 8 -135 11 -513 4 -513
-3 0 -6 -37 -6 -83 -2 -75 -10 -202 -13 -202 -1 0 -3 -25 -5 -55 -4 -58 -11
-109 -26 -200 -5 -30 -12 -73 -15 -95 -7 -50 -10 -68 -39 -210 -14 -67 -38
-163 -61 -250 -15 -55 -29 -107 -30 -115 -2 -8 -4 -16 -5 -17 -2 -2 -3 -6 -5
-10 -1 -5 -4 -15 -7 -23 -3 -8 -23 -64 -43 -125 -71 -211 -267 -655 -298 -676
-5 -3 -9 -10 -9 -15 -1 -17 -21 -54 -30 -54 -4 0 -8 -9 -8 -20 0 -11 -4 -20
-10 -20 -5 0 -10 -4 -10 -10 0 -22 -232 -370 -317 -475 -71 -88 -101 -124
-120 -145 -12 -14 -42 -47 -65 -75 -121 -140 -424 -423 -587 -545 -18 -14 -45
-34 -59 -46 -15 -11 -65 -47 -112 -79 -47 -31 -87 -60 -90 -64 -8 -9 -63 -42
-82 -48 -10 -3 -18 -9 -18 -13 0 -4 -18 -15 -40 -25 -22 -10 -40 -22 -40 -26
0 -4 -10 -11 -22 -15 -13 -4 -25 -10 -28 -13 -20 -26 -542 -281 -575 -281 -8
0 -15 -4 -17 -8 -1 -4 -57 -27 -123 -51 -66 -24 -129 -47 -140 -52 -21 -9
-113 -40 -130 -44 -5 -1 -17 -5 -25 -8 -56 -21 -185 -55 -192 -51 -4 3 -8 0
-8 -7 0 -7 -3 -10 -6 -6 -3 3 -17 2 -30 -3 -14 -6 -35 -12 -47 -14 -12 -3 -67
-16 -122 -30 -90 -22 -122 -29 -190 -41 -76 -13 -92 -16 -105 -20 -8 -2 -33
-7 -55 -10 -22 -2 -49 -6 -60 -9 -42 -8 -91 -16 -127 -21 -21 -3 -55 -7 -75
-11 -21 -3 -58 -7 -83 -9 -25 -3 -63 -7 -85 -10 -52 -6 -197 -17 -255 -19 -25
-1 -50 -4 -55 -8 -12 -7 -857 -7 -869 0 -8 4 -104 11 -233 15 -24 1 -43 4 -43
8 0 4 -7 6 -17 5 -13 -1 -16 9 -17 47 -1 27 3 47 9 47 6 0 7 3 0 8 -12 9 -14
452 -2 452 5 0 5 5 1 12 -11 17 -12 148 -1 148 4 0 5 5 1 12 -11 17 -12 148
-1 148 4 0 5 5 1 12 -11 17 -12 148 -1 148 4 0 5 5 1 12 -10 16 -11 1428 -1
1428 5 0 5 5 1 12 -11 17 -12 148 -1 148 4 0 5 5 1 12 -11 17 -12 148 -1 148
4 0 5 5 1 12 -11 17 -12 148 -1 148 4 0 5 5 1 12 -10 16 -11 1428 -1 1428 5 0
5 5 1 12 -11 17 -12 148 -1 148 4 0 5 5 1 12 -11 17 -12 148 -1 148 4 0 5 5 1
12 -11 17 -12 148 -1 148 4 0 5 5 1 12 -10 16 -11 1428 -1 1428 5 0 5 6 1 12
-10 16 -11 308 -2 314 4 3 42 -29 85 -70 43 -41 94 -89 113 -106 41 -38 272
-255 340 -320 26 -25 107 -101 180 -170 73 -69 175 -165 227 -215 53 -49 112
-106 133 -125 32 -30 223 -210 364 -343 23 -22 97 -91 165 -155 68 -65 151
-143 185 -175 33 -32 110 -104 170 -160 59 -56 136 -129 171 -162 35 -33 118
-112 186 -175 67 -63 148 -140 180 -170 31 -30 110 -104 175 -165 64 -60 149
-140 187 -177 38 -38 70 -68 72 -68 2 0 32 -28 68 -62 35 -35 124 -119 197
-188 73 -69 159 -150 191 -180 74 -70 281 -265 339 -320 47 -44 313 -296 336
-318 9 -9 45 -12 126 -10 l113 3 3 2608 2 2608 47 -38 c26 -21 55 -45 64 -53z"/>
</g>
</svg>
